<svg xmlns="http://www.w3.org/2000/svg" width="220" height="32" viewBox="0 0 220 32">
  <defs>
    <linearGradient id="gold" x1="0" x2="1"><stop offset="0" stop-color="#ffd54a"/><stop offset="1" stop-color="#ffb300"/></linearGradient>
  </defs>
  <g transform="translate(0,4)" fill="url(#gold)">
    <polygon points="12,0 15,8 24,8 17,13 20,22 12,17 4,22 7,13 0,8 9,8" />
    <g transform="translate(44,0)"><polygon points="12,0 15,8 24,8 17,13 20,22 12,17 4,22 7,13 0,8 9,8" /></g>
    <g transform="translate(88,0)"><polygon points="12,0 15,8 24,8 17,13 20,22 12,17 4,22 7,13 0,8 9,8" /></g>
    <g transform="translate(132,0)"><polygon points="12,0 15,8 24,8 17,13 20,22 12,17 4,22 7,13 0,8 9,8" /></g>
    <g transform="translate(176,0)"><polygon points="12,0 15,8 24,8 17,13 20,22 12,17 4,22 7,13 0,8 9,8" /></g>
  </g>
</svg>